# xmcd CD database file
#
# Track frame offsets:
#	180
#	22039
#	41950
#	62616
#	84617
#	103835
#	123327
#	143572
#	163477
#	186355
#	207411
#
# Disc length: 3082 seconds
#
# Revision: 0
# Processed by: cddbd v1.5.2PL0 Copyright (c) Steve Scherf et al.
# Submitted via: NeoAudio 9.9.9
#
DISCID=a50c080b
DTITLE=The Latin Brothers - De Nuevo ...
DYEAR=1997
DGENRE=Salsa
TTITLE0=Amor Callejero
TTITLE1=La Tormenta
TTITLE2=Pasion Tropical
TTITLE3=Por Otro Amor
TTITLE4=El Trovador
TTITLE5=Tus Labios Rojos
TTITLE6=Delia La Cumbiambera
TTITLE7=Amor Del Bueno
TTITLE8=La Hipocondriaca
TTITLE9=Sin Barreras
TTITLE10=Good Loving
EXTD=YEAR: 1997
EXTT0=
EXTT1=
EXTT2=
EXTT3=
EXTT4=
EXTT5=
EXTT6=
EXTT7=
EXTT8=
EXTT9=
EXTT10=
PLAYORDER=
